<?xml version="1.0" standalone="no"?>
<!DOCTYPE svg PUBLIC "-//W3C//DTD SVG 20010904//EN"
 "http://www.w3.org/TR/2001/REC-SVG-20010904/DTD/svg10.dtd">
<svg version="1.0" xmlns="http://www.w3.org/2000/svg"
 width="850.000000pt" height="425.000000pt" viewBox="0 0 850.000000 425.000000"
 preserveAspectRatio="xMidYMid meet">

<g transform="translate(0.000000,425.000000) scale(0.100000,-0.100000)"
fill="#000000" stroke="none">
<path d="M0 2125 l0 -2125 4250 0 4250 0 0 2125 0 2125 -4250 0 -4250 0 0
-2125z m7337 1799 c64 -53 155 -181 216 -306 30 -62 88 -207 127 -323 119
-346 221 -586 370 -865 51 -96 84 -186 94 -256 6 -38 6 -38 -5 -9 -45 121 -79
164 -219 282 -49 42 -79 58 -146 78 -68 21 -85 30 -89 48 -30 133 -45 233 -45
297 0 67 4 85 30 133 35 67 37 102 10 186 -46 140 -276 614 -293 604 -6 -3 -7
-2 -4 4 8 13 -43 88 -92 132 -73 66 -37 62 46 -5z m-2019 -20 c173 -57 306
-157 611 -459 212 -210 223 -223 211 -245 -12 -22 -13 -22 -79 48 -93 99 -229
219 -316 278 -91 61 -185 99 -259 103 -42 2 -108 -18 -123 -37 -19 -26 -25
-90 -15 -177 6 -54 5 -86 -2 -97 -7 -12 -7 -27 2 -51 7 -18 13 -67 14 -108 1
-41 6 -79 11 -86 5 -7 6 -17 3 -22 -4 -5 -1 -63 5 -128 6 -65 12 -131 13 -148
9 -99 28 -255 35 -287 7 -33 5 -40 -23 -66 -17 -16 -58 -48 -92 -70 l-61 -40
4 -74 c4 -83 22 -165 33 -148 4 7 10 11 14 10 16 -4 190 117 309 214 81 67
137 106 152 106 22 0 23 -2 24 -111 1 -61 6 -134 11 -161 6 -28 12 -78 15
-111 3 -34 9 -78 14 -97 5 -19 15 -80 21 -135 7 -55 16 -104 20 -110 19 -25
32 -161 23 -227 -5 -36 -7 -38 -44 -38 -21 0 -40 -4 -43 -9 -3 -4 7 -6 22 -4
15 2 6 -4 -20 -12 -54 -18 -57 -34 -20 -100 13 -22 35 -60 49 -85 14 -25 50
-92 80 -150 30 -58 61 -112 69 -121 8 -8 14 -28 14 -42 0 -15 5 -27 10 -27 6
0 10 -8 10 -18 0 -33 52 -43 118 -23 32 10 67 23 77 28 29 17 421 411 504 507
207 242 277 323 297 341 20 18 95 82 112 95 9 6 27 38 71 125 19 39 50 86 68
105 18 19 33 38 33 43 0 4 9 7 19 7 27 0 32 -25 21 -95 -5 -33 -10 -61 -10
-61 0 -1 -54 -50 -120 -110 -141 -126 -271 -268 -555 -604 -280 -332 -429
-495 -560 -613 -156 -140 -232 -194 -375 -264 -168 -83 -216 -98 -321 -98 -80
0 -91 3 -162 39 -111 56 -246 201 -390 419 -89 134 -190 346 -203 424 -9 59
16 69 58 24 17 -18 35 -30 41 -28 6 2 23 37 37 78 25 69 81 183 119 239 25 36
62 131 55 141 -3 5 -1 9 4 9 5 0 10 26 10 59 0 54 -3 62 -39 100 -36 38 -39
45 -39 99 1 31 5 75 9 97 58 272 61 282 94 307 20 16 21 18 3 18 -11 0 -48 16
-83 36 -41 23 -77 35 -103 36 -34 0 -42 5 -66 42 -24 36 -29 55 -37 161 -17
229 2 514 43 650 47 154 64 206 81 242 10 24 19 49 19 57 0 7 7 19 15 26 8 7
15 17 15 22 0 5 18 48 41 96 22 48 44 96 49 107 4 11 15 36 23 55 8 19 18 45
22 58 3 12 10 22 15 22 5 0 11 9 15 19 7 23 26 28 123 30 55 1 93 -5 150 -25z
m967 -734 c4 -6 14 -9 23 -8 10 2 19 -8 25 -30 6 -20 23 -40 44 -53 18 -11 31
-24 28 -29 -3 -4 2 -10 10 -14 8 -3 15 -14 15 -24 0 -11 6 -25 14 -31 7 -6 16
-25 20 -42 4 -23 10 -30 21 -25 11 4 20 -3 28 -22 13 -30 46 -61 64 -62 6 0
20 -11 30 -24 10 -13 29 -27 42 -31 13 -4 34 -17 45 -29 12 -11 28 -22 36 -24
8 -2 17 -7 20 -11 3 -5 14 -11 26 -15 42 -13 64 -44 64 -92 0 -25 -4 -43 -8
-40 -5 3 -22 2 -37 -3 -32 -8 -108 23 -158 65 -40 34 -127 137 -127 151 0 6
-12 25 -26 42 -14 17 -23 35 -20 40 4 5 -3 12 -14 16 -11 3 -20 13 -20 21 0 8
-10 18 -22 23 -24 10 -59 46 -52 54 2 2 -23 32 -57 67 -42 43 -59 69 -56 81 4
15 2 17 -12 9 -14 -7 -18 -5 -18 8 -1 9 0 23 3 30 4 15 60 16 69 2z m-5616
-338 c22 -10 38 -22 33 -27 -4 -5 -1 -5 5 -1 17 10 532 -201 562 -230 45 -42
49 -218 6 -254 -8 -6 -71 -36 -140 -65 -69 -28 -127 -55 -128 -59 -1 -4 51
-29 117 -56 148 -62 161 -70 177 -117 19 -58 5 -310 -19 -343 -14 -18 -87 -53
-268 -127 -137 -57 -251 -103 -254 -102 -3 0 11 9 30 20 19 11 27 18 17 15
-47 -15 -65 -17 -70 -9 -3 4 -43 7 -90 5 -84 -3 -86 -4 -90 -30 -2 -15 -4 47
-3 138 l1 164 304 128 c168 70 311 133 318 140 7 7 9 18 5 25 -9 14 -238 113
-262 113 -9 0 -96 -34 -195 -75 -98 -41 -180 -75 -182 -75 -2 0 -3 56 -3 124
l0 123 73 31 c39 16 184 76 320 133 137 56 251 109 255 117 3 8 -2 20 -10 26
-9 6 -137 63 -286 125 -149 63 -269 118 -266 123 3 4 15 1 28 -7 19 -13 23
-13 23 -1 0 9 -7 12 -16 8 -9 -3 -12 -1 -8 3 4 5 -3 15 -15 22 -34 19 -16 16
31 -5z m1060 -634 c30 -98 57 -175 60 -172 3 3 31 83 61 177 l56 172 53 0 54
0 55 -177 c31 -98 58 -178 61 -178 3 0 28 71 55 158 68 221 57 202 116 202 27
0 50 -3 50 -7 0 -26 -144 -435 -149 -423 -10 26 -33 24 -26 -2 6 -21 6 -21 -6
-6 -9 10 -34 18 -65 20 -47 4 -51 3 -47 -16 2 -12 -18 41 -44 116 -27 75 -51
139 -54 143 -4 3 -15 -18 -24 -47 -42 -127 -78 -218 -86 -218 -4 0 -6 6 -3 13
4 11 -6 12 -45 7 -28 -3 -57 -3 -65 2 -10 6 -17 2 -22 -14 -5 -18 -24 29 -81
197 -40 121 -73 223 -73 228 0 4 26 7 57 5 l58 -3 54 -177z m1069 136 l-3 -46
-130 -1 -130 -2 -3 -57 -3 -58 121 0 120 0 0 -40 0 -39 -117 -3 -118 -3 -3
-62 -3 -63 136 0 c132 0 135 0 135 -22 0 -20 -1 -20 -12 -5 -11 13 -40 16
-184 19 l-172 3 -6 50 c-3 27 -6 123 -6 213 l0 162 191 0 190 0 -3 -46z m459
23 c78 -41 98 -128 44 -189 l-29 -34 33 -21 c57 -38 67 -145 18 -184 -15 -12
-15 -10 1 16 l19 30 -21 -19 c-21 -18 -22 -18 -22 -1 0 15 -2 15 -16 5 -8 -8
-14 -9 -13 -4 4 24 -3 26 -14 4 -8 -14 -20 -23 -28 -21 -8 3 -24 5 -36 5 -30
1 -29 3 12 20 39 17 53 52 35 86 -16 31 -50 40 -146 40 l-84 0 0 -69 c0 -46 4
-71 13 -75 6 -2 1 -3 -13 -1 -14 2 -31 4 -38 4 -7 1 -11 5 -8 10 3 4 -6 6 -19
3 -14 -2 -26 -9 -26 -16 -6 -40 -17 136 -18 273 l-1 163 163 -4 c126 -3 169
-8 194 -21z m505 -22 c-3 -31 -15 -52 -57 -101 l-54 -61 44 -18 c25 -9 54 -29
65 -45 35 -49 22 -151 -23 -189 -12 -9 -17 -9 -23 0 -4 7 -3 10 2 7 5 -3 17 4
26 17 17 22 17 23 -10 22 -15 -1 -30 -5 -33 -10 -9 -12 -43 -16 -50 -5 -8 13
-40 -2 -32 -16 4 -6 -1 -5 -10 2 -9 8 -33 12 -54 11 -21 -2 -45 1 -52 5 -8 5
-16 4 -21 -4 -5 -9 -13 -6 -28 11 l-21 22 4 -21 c2 -14 -1 -22 -11 -22 -17 0
-17 2 -3 34 11 24 12 24 48 8 20 -9 37 -19 39 -22 1 -3 32 -3 68 0 53 5 70 10
85 29 25 31 24 47 -6 76 -19 20 -34 25 -75 25 l-50 0 0 41 c0 36 7 49 45 90
25 26 45 53 45 59 0 8 -32 10 -100 8 l-100 -3 0 48 0 47 173 -2 172 -3 -3 -40z
m-644 -392 c-16 -2 -40 -2 -55 0 -16 2 -3 4 27 4 30 0 43 -2 28 -4z m4612
-1296 c0 -1 -30 -32 -67 -67 -37 -36 -60 -56 -52 -46 8 11 13 21 12 23 -2 1 0
3 5 3 15 1 71 64 65 73 -3 6 -1 7 5 3 6 -3 13 -2 17 4 6 9 15 14 15 7z"/>
<path d="M3010 2230 l0 -60 83 0 c96 0 127 14 127 60 0 46 -31 60 -127 60
l-83 0 0 -60z"/>
<path d="M3226 1961 c-17 -6 -17 -8 -4 -14 10 -3 19 0 22 9 3 8 4 14 3 13 -1
0 -11 -4 -21 -8z"/>
</g>
</svg>
